<?xml version="1.0" standalone="no"?>
<!DOCTYPE svg PUBLIC "-//W3C//DTD SVG 20010904//EN"
 "http://www.w3.org/TR/2001/REC-SVG-20010904/DTD/svg10.dtd">
<svg version="1.0" xmlns="http://www.w3.org/2000/svg"
 width="500.000000pt" height="500.000000pt" viewBox="0 0 500.000000 500.000000"
 preserveAspectRatio="xMidYMid meet">
<metadata>
Created by potrace 1.14, written by Peter Selinger 2001-2017
</metadata>
<g transform="translate(0.000000,500.000000) scale(0.100000,-0.100000)"
fill="#000000" stroke="none">
<path d="M2636 4426 c-49 -18 -36 -6 -683 -663 -120 -122 -429 -436 -688 -698
-259 -262 -488 -495 -509 -518 -77 -81 -98 -185 -56 -273 12 -24 53 -71 93
-108 40 -35 90 -81 112 -101 22 -20 60 -46 85 -58 44 -20 56 -21 400 -18 195
2 439 4 543 5 103 2 187 2 187 1 0 -1 -68 -206 -152 -456 -167 -501 -174 -533
-131 -614 18 -34 138 -154 252 -252 61 -54 143 -70 225 -46 44 13 69 35 220
187 216 218 1002 1017 1244 1264 101 103 253 257 337 342 84 86 162 175 174
198 45 88 20 208 -56 271 -31 25 -192 123 -291 176 -36 19 -53 20 -564 17
-308 -1 -528 1 -528 6 0 5 70 220 155 478 85 258 157 489 159 514 5 59 -24
137 -66 177 -29 27 -141 91 -273 157 -51 25 -138 31 -189 12z m-99 -753 c-3
-5 -24 -69 -47 -143 -24 -74 -46 -139 -49 -145 -3 -5 -6 -14 -7 -20 -1 -5 -34
-107 -74 -225 -40 -118 -73 -220 -74 -227 -1 -7 -5 -16 -9 -19 -4 -4 -7 -18
-7 -30 0 -17 24 -39 101 -94 97 -68 105 -72 158 -72 31 0 306 3 611 7 l554 7
-191 -194 c-105 -106 -290 -293 -410 -415 -120 -122 -311 -316 -424 -431 -114
-115 -211 -212 -216 -215 -4 -3 49 166 119 376 70 210 127 389 127 397 0 8
-30 36 -67 62 -37 26 -84 59 -105 74 l-38 28 -172 -2 c-95 -1 -374 -5 -620 -8
l-448 -5 103 104 c184 185 1011 1026 1093 1112 69 71 107 103 92 78z"/>
</g>
</svg>
